<?xml version="1.0" encoding="UTF-8" standalone="no"?>
<!-- Created with Inkscape (http://www.inkscape.org/) -->

<svg
   width="100mm"
   height="100mm"
   viewBox="0 0 99.999998 99.999999"
   version="1.1"
   id="svg1"
   xml:space="preserve"
   inkscape:version="1.3.1 (91b66b0783, 2023-11-16)"
   sodipodi:docname="designed-for-tt.svg"
   xmlns:inkscape="http://www.inkscape.org/namespaces/inkscape"
   xmlns:sodipodi="http://sodipodi.sourceforge.net/DTD/sodipodi-0.dtd"
   xmlns="http://www.w3.org/2000/svg"
   xmlns:svg="http://www.w3.org/2000/svg"><sodipodi:namedview
     id="namedview1"
     pagecolor="#ffffff"
     bordercolor="#666666"
     borderopacity="1.0"
     inkscape:showpageshadow="2"
     inkscape:pageopacity="0.0"
     inkscape:pagecheckerboard="0"
     inkscape:deskcolor="#d1d1d1"
     inkscape:document-units="mm"
     inkscape:zoom="1.375477"
     inkscape:cx="178.12003"
     inkscape:cy="247.55049"
     inkscape:window-width="2560"
     inkscape:window-height="1369"
     inkscape:window-x="-8"
     inkscape:window-y="-8"
     inkscape:window-maximized="1"
     inkscape:current-layer="layer1" /><defs
     id="defs1" /><g
     inkscape:label="Layer 1"
     inkscape:groupmode="layer"
     id="layer1"
     transform="translate(-57.967779,-101.63294)"><g
       id="g1"
       transform="matrix(0.26458333,0,0,0.26458333,17.744881,89.884109)">
	<path
   d="m 341,96.4 c -44.5,0 -83.9,21.9 -108.1,55.5 -7.9,11 -14.2,23.2 -18.5,36.4 h 21.6 52.1 v 90.1 h 39.3 v -24.3 h 22.7 v 87.8 c -3,0.3 -6.1,0.4 -9.2,0.4 -62.2,0 -112.8,-50.6 -112.8,-112.8 0,-10.3 1.4,-20.2 4,-29.6 h -21 c -2.2,9.5 -3.3,19.4 -3.3,29.6 0,73.4 59.7,133.1 133.1,133.1 3.1,0 6.1,-0.1 9.2,-0.3 1.7,-0.1 3.4,-0.3 5.1,-0.5 0.1,0 0.3,0 0.4,0 11.8,-1.3 23.1,-4.1 33.8,-8.3 v 0 c 0,0 0,0 0,0 V 254.1 H 428 V 217.7 H 327.5 V 188.2 H 366 V 151.8 H 259.3 c 20.5,-21.6 49.6,-35.1 81.7,-35.1 62.2,0 112.8,50.6 112.8,112.8 0,40.1 -21,75.4 -52.6,95.4 v 23.4 c 43.3,-22 73,-67 73,-118.8 C 474.1,156.1 414.4,96.4 341,96.4 Z"
   id="path1" />
</g><path
       style="-inkscape-font-specification:'Segoe UI Bold';stroke-width:0.264583"
       d="m 84.197848,183.94722 -1.628088,-1.34776 -3.85875,4.66135 -1.289733,-1.06767 3.85875,-4.66135 -1.620127,-1.34117 0.866653,-1.04691 4.537949,3.7566 z m 1.452429,0.76954 q -0.345888,-0.22643 -0.433365,-0.57398 -0.08465,-0.35188 0.110647,-0.65021 0.200954,-0.30698 0.548823,-0.35719 0.34787,-0.0502 0.693757,0.17621 0.350212,0.22926 0.439026,0.56534 0.09314,0.33891 -0.107816,0.64588 -0.203785,0.3113 -0.554485,0.36584 -0.346375,0.0574 -0.696587,-0.17189 z m -2.682309,5.56932 -1.366257,-0.89439 2.898274,-4.42736 1.366257,0.89439 z m 6.266847,3.38558 -1.454513,-0.73084 1.320159,-2.62736 q 0.552193,-1.09897 -0.232782,-1.49339 -0.378635,-0.19025 -0.769532,-0.0223 -0.390896,0.16794 -0.61595,0.61584 l -1.354961,2.69662 -1.45913,-0.73317 2.375822,-4.72832 1.459131,0.73317 -0.375863,0.74803 0.01847,0.009 q 0.955644,-0.60129 1.953024,-0.10014 1.569951,0.78884 0.590852,2.73743 z m 8.259637,-2.70281 -3.852521,4.73763 q -1.389462,1.70927 -2.8694,1.21397 -0.563553,-0.18861 -0.883545,-0.43739 l 0.4133,-1.23491 q 0.248046,0.28464 0.61068,0.406 0.597856,0.20009 1.021688,-0.28474 l 0.472915,-0.53379 -0.362427,-5.69054 1.71516,0.57403 -0.08578,3.36624 q -0.0069,0.31375 -0.08748,0.71728 l 0.0196,0.007 q 0.139229,-0.26946 0.383127,-0.60744 l 1.970839,-2.74625 z m 9.119118,0.59649 -2.09933,-0.24487 -0.70108,6.01054 -1.66303,-0.19398 0.70107,-6.01054 -2.08906,-0.24367 0.15746,-1.34993 5.85143,0.68251 z m 4.29083,5.89403 -1.54495,0.0229 -0.0112,-0.75956 -0.0207,3.1e-4 q -0.51905,0.89661 -1.56279,0.91206 -0.7699,0.0114 -1.22069,-0.41606 -0.4457,-0.43269 -0.45649,-1.16125 -0.0228,-1.53978 1.79766,-1.80447 l 1.43361,-0.21245 q -0.0129,-0.86806 -0.95325,-0.85414 -0.94557,0.014 -1.7898,0.58983 l -0.0182,-1.22976 q 0.33843,-0.18073 0.92548,-0.32379 0.59223,-0.14314 1.07793,-0.15034 2.26317,-0.0335 2.2966,2.22451 z m -1.56644,-2.12678 -0.005,-0.35653 -0.95924,0.13824 q -0.79419,0.11512 -0.78509,0.73 0.004,0.27902 0.19799,0.45704 0.19895,0.17277 0.52964,0.16788 0.45987,-0.007 0.74456,-0.32629 0.28461,-0.32464 0.27742,-0.81034 z m 5.03596,1.11427 -0.0204,0.003 0.48324,3.01036 -1.61233,0.25883 -1.22449,-7.62795 1.61233,-0.25882 0.12614,0.78575 0.0204,-0.003 q 0.45036,-1.00915 1.53204,-1.18279 1.01536,-0.16299 1.67862,0.44757 0.66754,0.60464 0.86002,1.80368 0.20968,1.30619 -0.31136,2.20106 -0.51593,0.89406 -1.58742,1.06607 -0.94392,0.15152 -1.55679,-0.50376 z m -0.38993,-2.1356 0.0672,0.41839 q 0.0868,0.54084 0.42742,0.83683 0.34061,0.29599 0.80492,0.22145 0.55105,-0.0884 0.7841,-0.56027 0.23734,-0.47774 0.11202,-1.25839 -0.22114,-1.37762 -1.29263,-1.20562 -0.49492,0.0794 -0.75065,0.5078 -0.25145,0.42243 -0.15235,1.03981 z m 9.82229,-1.8142 -3.29383,1.03287 q 0.4237,1.07485 1.73039,0.6651 0.83332,-0.2613 1.34077,-0.85369 l 0.35254,1.12424 q -0.58268,0.59431 -1.70199,0.9453 -1.22286,0.38346 -2.11022,-0.0802 -0.88891,-0.46863 -1.26927,-1.68163 -0.39429,-1.25738 0.1051,-2.22092 0.49939,-0.96354 1.56446,-1.29752 1.10451,-0.34635 1.91173,0.12082 0.81214,0.46563 1.16468,1.58987 z m -1.74471,-0.50355 q -0.34017,-1.08479 -1.21786,-0.80957 -0.37475,0.11752 -0.55347,0.51475 -0.17379,0.39569 -0.0876,0.87774 z m 6.23242,1.01308 q -1.1926,0.57253 -2.19723,0.2351 -1.0022,-0.34433 -1.55236,-1.49035 -0.56806,-1.18329 -0.17975,-2.18941 0.38606,-1.01078 1.59265,-1.59001 1.18794,-0.57029 2.18549,-0.22373 0.99531,0.34191 1.52311,1.44134 0.57028,1.18795 0.20248,2.21289 -0.36314,1.0227 -1.57439,1.60417 z m -1.82343,-3.89386 q -0.52177,0.25048 -0.6384,0.74785 -0.11663,0.49737 0.19871,1.15424 0.65974,1.37429 1.7685,0.84202 1.0575,-0.50767 0.37987,-1.91923 -0.64186,-1.33702 -1.70868,-0.82488 z m 9.99298,-1.18189 -1.34487,0.9171 -0.45418,-0.66603 -0.0214,0.0146 q 0.0275,1.1134 -0.80936,1.68404 -1.51991,1.03647 -2.77474,-0.80365 l -1.79926,-2.6385 1.34487,-0.9171 1.71774,2.51895 q 0.63178,0.92647 1.36612,0.4257 0.3629,-0.24747 0.40887,-0.64785 0.0431,-0.40465 -0.25391,-0.84013 l -1.7061,-2.50188 1.34487,-0.9171 z m 3.90377,-3.46294 q -0.14421,0.3829 -0.68991,0.86573 -1.29266,1.14371 -2.48089,-0.19925 l -1.60599,-1.81513 -0.64246,0.56843 -0.79786,-0.90176 0.64246,-0.56843 -0.75677,-0.85532 0.91093,-1.42697 1.06496,1.20363 0.89015,-0.78758 0.79786,0.90176 -0.89015,0.78758 1.41766,1.60227 q 0.54788,0.61924 1.0394,0.18435 0.19351,-0.17121 0.29933,-0.46494 z"
       id="text2"
       aria-label="Tiny Tapeout" /><path
       style="-inkscape-font-specification:'Segoe UI Bold';stroke-width:0.264583"
       d="m 80.369231,122.28425 -4.746405,-5.69081 2.015991,-1.68144 q 3.031924,-2.52876 5.345549,0.24521 1.108818,1.32944 0.941385,2.81491 -0.163464,1.48216 -1.540529,2.6307 z m -2.594079,-5.7162 3.008705,3.60735 0.634958,-0.52958 q 0.833382,-0.69508 0.888584,-1.58899 0.05917,-0.89722 -0.659079,-1.75838 -0.678531,-0.81354 -1.53804,-0.88397 -0.85885,-0.0777 -1.708107,0.6306 z m 11.622888,-3.28502 -2.989537,1.72592 q 0.647774,0.95667 1.833743,0.27198 0.756335,-0.43664 1.122483,-1.12539 l 0.589086,1.02038 q -0.439138,0.70702 -1.455044,1.29352 -1.109888,0.64076 -2.07698,0.38161 -0.969675,-0.26364 -1.605269,-1.36457 -0.658846,-1.14122 -0.381466,-2.19044 0.277379,-1.04921 1.244056,-1.60729 1.002479,-0.57876 1.892106,-0.29875 0.894102,0.27743 1.483189,1.29781 z m -1.812519,-0.11119 q -0.568416,-0.98458 -1.365029,-0.52468 -0.340127,0.19637 -0.427973,0.623 -0.08337,0.42405 0.105793,0.87574 z m 3.433571,1.62653 -0.505288,-1.22261 q 0.465283,0.0705 0.878419,0.0284 0.417912,-0.0441 0.747444,-0.1803 0.40117,-0.1658 0.585013,-0.37039 0.188618,-0.20655 0.09585,-0.43102 -0.05921,-0.14327 -0.203757,-0.19537 -0.144544,-0.0521 -0.341305,-0.0546 -0.191985,-0.005 -0.411479,0.0191 -0.219495,0.0236 -0.430583,0.027 -0.336723,0.0106 -0.612505,-0.0208 -0.27298,-0.0382 -0.494889,-0.14214 -0.217133,-0.10597 -0.389116,-0.2921 -0.167207,-0.18811 -0.291556,-0.48899 -0.169745,-0.41072 -0.115413,-0.77985 0.05911,-0.37111 0.278231,-0.67974 0.221926,-0.31538 0.568465,-0.55925 0.34934,-0.25061 0.764838,-0.42233 0.324756,-0.13422 0.680776,-0.21985 0.354046,-0.0904 0.718278,-0.12911 l 0.481602,1.16531 q -0.355632,-0.0487 -0.718719,0.006 -0.360284,0.0482 -0.675489,0.17852 -0.148051,0.0612 -0.269931,0.14511 -0.119079,0.0772 -0.19766,0.17115 -0.08055,0.0892 -0.10431,0.19409 -0.02573,0.1001 0.01572,0.20039 0.05527,0.13372 0.180706,0.19371 0.125441,0.06 0.293546,0.0744 0.166132,0.01 0.356972,-0.002 0.193641,-0.0185 0.384481,-0.0303 0.3443,-0.0193 0.639186,0.004 0.294886,0.0235 0.535898,0.11961 0.245788,0.0941 0.429296,0.28108 0.188285,0.18499 0.31658,0.49542 0.179614,0.4346 0.116877,0.82398 -0.05994,0.38263 -0.294216,0.70871 -0.231478,0.31933 -0.606671,0.57504 -0.368444,0.25851 -0.80782,0.4401 -0.807116,0.33357 -1.597472,0.36945 z m 3.726373,-7.78695 q -0.395586,0.12008 -0.71832,-0.0358 -0.324234,-0.1608 -0.427804,-0.502 -0.106571,-0.35108 0.07807,-0.65015 0.184641,-0.29907 0.580228,-0.41915 0.400531,-0.12158 0.715318,0.0259 0.319731,0.14597 0.426303,0.49705 0.108072,0.35603 -0.07507,0.66004 -0.178196,0.30251 -0.578727,0.42409 z m 2.551584,5.63042 -1.562566,0.47431 -1.537028,-5.0635 1.562566,-0.47432 z m 6.321901,-1.91517 q 0.25419,1.45067 -0.44654,2.39189 -0.69983,0.9463 -2.29303,1.22547 -1.053643,0.18462 -1.722164,-0.008 l -0.237245,-1.35396 q 0.886287,0.32737 1.705789,0.18378 0.81441,-0.14271 1.18653,-0.65385 0.37301,-0.50606 0.24368,-1.24412 l -0.0722,-0.41229 -0.0204,0.004 q -0.39633,0.97182 -1.47033,1.16001 -0.997657,0.17482 -1.706097,-0.42505 -0.708441,-0.59986 -0.915361,-1.78076 -0.231893,-1.32342 0.283176,-2.21636 0.51507,-0.89295 1.578896,-1.07935 0.951846,-0.16679 1.553656,0.48324 l 0.0204,-0.004 -0.10614,-0.60572 1.60847,-0.28184 z m -1.92257,-1.63051 -0.0722,-0.41229 q -0.0865,-0.49374 -0.44239,-0.78814 -0.35167,-0.30037 -0.81996,-0.21832 -0.534459,0.0937 -0.766728,0.56455 -0.232269,0.4709 -0.09938,1.22932 0.114163,0.65153 0.471189,0.98245 0.356135,0.32583 0.860055,0.23753 0.49883,-0.0874 0.73734,-0.52268 0.24271,-0.44125 0.13211,-1.07242 z m 8.50716,2.06088 -1.62773,0.0149 -0.0269,-2.94025 q -0.0113,-1.22985 -0.88972,-1.22181 -0.42373,0.004 -0.69462,0.33194 -0.2709,0.32805 -0.26631,0.82929 l 0.0276,3.01777 -1.63291,0.0149 -0.0484,-5.29143 1.6329,-0.0149 0.008,0.83712 0.0207,-1.9e-4 q 0.57508,-0.97165 1.69124,-0.98187 1.75692,-0.0161 1.77688,2.16457 z m 6.31432,-1.35222 -3.41592,-0.49765 q -0.0843,1.15226 1.2708,1.34969 0.86421,0.1259 1.57835,-0.18783 l -0.16985,1.16591 q -0.78276,0.28285 -1.94356,0.11373 -1.26818,-0.18476 -1.86669,-0.98739 -0.59776,-0.80775 -0.41449,-2.0657 0.18997,-1.30398 1.0578,-1.95566 0.86782,-0.65167 1.97237,-0.49075 1.14545,0.16688 1.67023,0.93788 0.5299,0.77175 0.36004,1.93766 z m -1.35377,-1.21033 q 0.16389,-1.125 -0.74633,-1.25761 -0.38864,-0.0566 -0.72194,0.22383 -0.32819,0.28118 -0.45958,0.75292 z m 6.94293,5.11625 -1.55984,-0.48319 0.2156,-0.696 -0.0198,-0.006 q -0.78694,0.65427 -1.81861,0.3347 -0.94775,-0.29359 -1.31887,-1.13888 -0.36958,-0.85023 0.002,-2.04973 0.38839,-1.2538 1.25911,-1.81179 0.87072,-0.55799 1.90239,-0.23842 0.97737,0.30276 1.14527,1.12297 l 0.0198,0.006 0.9312,-3.00616 1.55985,0.48319 z m -0.76875,-2.93225 0.11774,-0.38009 q 0.15291,-0.49362 -0.0325,-0.9081 -0.18539,-0.41448 -0.64445,-0.55668 -0.51831,-0.16055 -0.93646,0.15894 -0.41662,0.31455 -0.63681,1.02537 -0.20642,0.66639 -0.0367,1.11389 0.16974,0.4475 0.6683,0.60194 0.47388,0.14679 0.88779,-0.14156 0.41885,-0.28681 0.61304,-0.91371 z m 10.89416,0.67857 q -0.21483,-0.26191 -0.46753,-0.40293 -0.6859,-0.38278 -1.10141,0.36179 l -0.27449,0.49187 1.05593,0.58926 -0.58675,1.05142 -1.05593,-0.58927 -1.99192,3.56941 -1.42144,-0.79324 1.99192,-3.56941 -0.77616,-0.43313 0.58675,-1.05142 0.77615,0.43313 0.31982,-0.57309 q 0.44069,-0.78969 1.22457,-0.98545 0.78388,-0.19576 1.66833,0.29781 0.43321,0.24175 0.67164,0.49317 z m -0.73791,7.67199 q -1.05912,-0.7927 -1.22449,-1.8395 -0.15813,-1.04784 0.6036,-2.06558 0.78651,-1.05084 1.85816,-1.17179 1.07474,-0.12509 2.14627,0.6769 1.05498,0.7896 1.20897,1.83434 0.1571,1.04061 -0.57367,2.01698 -0.78961,1.05498 -1.86846,1.20281 -1.07472,0.15092 -2.15038,-0.65416 z m 2.60937,-3.41736 q -0.46337,-0.3468 -0.9583,-0.22022 -0.49493,0.12658 -0.93154,0.70992 -0.91346,1.22047 0.0712,1.95743 0.93914,0.7029 1.87737,-0.55066 0.88869,-1.18737 -0.0587,-1.89647 z m 5.66407,5.51617 q -0.0974,-0.32085 -0.37715,-0.59649 -0.37915,-0.37356 -0.86829,-0.30416 -0.48552,0.0657 -0.95701,0.54426 l -1.77353,1.80005 -1.16322,-1.14609 3.7139,-3.76942 1.16322,1.14609 -0.68911,0.6994 0.0147,0.0145 q 1.03046,-0.49365 1.74827,0.21359 0.18406,0.18134 0.2436,0.32707 z"
       id="text1"
       aria-label="Designed for" /></g></svg>
